# xmcd
# 
# Track frame offsets:
#     150
#     25169
#     42141
#     61211
#     76650
#     93530
#     111073
#     131183
#     156976
#     180150
#     200308
#     220072
#     247638
#     267425
#     289500
#     311932
#     334706
# 
# Disc length: 4739
# 
# Revision: 4
# Processed by: cddbd v1.5.2PL0 Copyright (c) Steve Scherf et al.
# Submitted via: fre:ac v1.0.17
# 
DISCID=e2128111
DTITLE=Various Artist - Smooth Jazz Cafe 4
DYEAR=2002
DGENRE=Jazz
TTITLE0=Chris Botti with Shawn Colvin - All Would Envy
TTITLE1=Kenny Rankin - Round Midnight
TTITLE2=Jimmy Sommers with Coolio - Lowdown
TTITLE3=Kayah with Cesaria Evora - Embarcacao
TTITLE4=Mietek Szczesniak with Paulinho Garcia - Spoza Nas
TTITLE5=Ella Fitzgerald - Wait Till You See Him  [De Phazz remix]
TTITLE6=Miles Davis - Human Nature
TTITLE7=Randy Crawford - When I Get Over You
TTITLE8=Will Downing - I Can't Help It
TTITLE9=Norman Brown - Just Chillin'
TTITLE10=Anita Baker - Sweet Love
TTITLE11=Michael Franks - This Must Be Paradise
TTITLE12=Basia with Taro Hakase - So Nice
TTITLE13=Woobie Doobie - Mr. Jeff
TTITLE14=Jeff Golub with Sue Ann Carwell - If I Ever Lose This Heaven
TTITLE15=Gare du Nord - Pablo's Blues
TTITLE16=Richard Bona with Pat Metheny - Reverence
EXTD=
EXTT0=
EXTT1=
EXTT2=
EXTT3=
EXTT4=
EXTT5=
EXTT6=
EXTT7=
EXTT8=
EXTT9=
EXTT10=
EXTT11=
EXTT12=
EXTT13=
EXTT14=
EXTT15=
EXTT16=
PLAYORDER=
